<svg xmlns="http://www.w3.org/2000/svg" width="24" height="24" fill="#6B6F76" id="filter"><path fill="#6B6F76" fill-rule="evenodd" d="M20 5h-1.17a3.001 3.001 0 0 0-5.66 0H4a1 1 0 0 0 0 2h9.17a3.001 3.001 0 0 0 5.66 0H20a1 1 0 1 0 0-2zm-4 2a1 1 0 1 0 0-2 1 1 0 0 0 0 2zM3 12a1 1 0 0 1 1-1h1.17a3.001 3.001 0 0 1 5.66 0H20a1 1 0 1 1 0 2h-9.17a3.001 3.001 0 0 1-5.66 0H4a1 1 0 0 1-1-1zm5 1a1 1 0 1 0 0-2 1 1 0 0 0 0 2zm-4 4a1 1 0 1 0 0 2h9.17a3.001 3.001 0 0 0 5.66 0H20a1 1 0 1 0 0-2h-1.17a3.001 3.001 0 0 0-5.66 0H4zm13 1a1 1 0 1 1-2 0 1 1 0 0 1 2 0z" clip-rule="evenodd"></path></svg>
