<?xml version="1.0" encoding="utf-8"?><!-- Uploaded to: SVG Repo, www.svgrepo.com, Generator: SVG Repo Mixer Tools -->
<svg width="800px" height="800px" viewBox="0 0 40 40" fill="none" xmlns="http://www.w3.org/2000/svg">
<rect width="40" height="40" rx="8" fill="#000000" fill-opacity="0.4"/>
<path d="M20 7.86667C13.2987 7.86667 7.86668 13.2987 7.86668 20C7.86668 26.7013 13.2987 32.1333 20 32.1333C26.7013 32.1333 32.1333 26.7013 32.1333 20C32.1333 13.2987 26.7013 7.86667 20 7.86667Z" fill="white"/>
<path d="M20 23.7333C20.2475 23.7333 20.4849 23.8317 20.66 24.0067C20.835 24.1817 20.9333 24.4191 20.9333 24.6667C20.9333 24.9142 20.835 25.1516 20.66 25.3266C20.4849 25.5017 20.2475 25.6 20 25.6C19.7524 25.6 19.5151 25.5017 19.34 25.3266C19.165 25.1516 19.0667 24.9142 19.0667 24.6667C19.0667 24.4191 19.165 24.1817 19.34 24.0067C19.5151 23.8317 19.7524 23.7333 20 23.7333ZM20 14.8667C20.2475 14.8667 20.4849 14.965 20.66 15.14C20.835 15.3151 20.9333 15.5525 20.9333 15.8V20.9333C20.9333 21.4488 20.5155 21.8667 20 21.8667C19.4845 21.8667 19.0667 21.4488 19.0667 20.9333V15.8C19.0667 15.5525 19.165 15.3151 19.34 15.14C19.5151 14.965 19.7524 14.8667 20 14.8667Z" fill="#B5B5B5"/>
</svg>