<?xml version="1.0" encoding="utf-8"?>

<!DOCTYPE svg PUBLIC "-//W3C//DTD SVG 1.1//EN" "http://www.w3.org/Graphics/SVG/1.1/DTD/svg11.dtd">
<!-- Uploaded to: SVG Repo, www.svgrepo.com, Generator: SVG Repo Mixer Tools -->
<svg height="800px" width="800px" version="1.1" id="_x32_" xmlns="http://www.w3.org/2000/svg" xmlns:xlink="http://www.w3.org/1999/xlink" 
	 viewBox="0 0 512 512"  xml:space="preserve">
<style type="text/css">
	.st0{fill:#000000;}
</style>
<g>
	<path class="st0" d="M256,0c-11.191,0-23.03,9.012-19.737,37.037c2.627,22.364,9.555,44.566,19.737,44.566
		c10.164,0,17.091-22.202,19.718-44.566C279.03,9.012,267.192,0,256,0z"/>
	<path class="st0" d="M256,430.397c-10.182,0-17.11,22.202-19.737,44.565C232.97,502.988,244.809,512,256,512
		c11.192,0,23.03-9.012,19.718-37.038C273.091,452.599,266.164,430.397,256,430.397z"/>
	<path class="st0" d="M127.435,34.116c-9.688,5.596-15.436,19.319,1.426,41.938c13.476,18.053,30.568,33.803,39.38,28.721
		c8.812-5.082,3.711-27.778-5.196-48.457C151.891,30.395,137.122,28.51,127.435,34.116z"/>
	<path class="st0" d="M343.761,407.224c-8.812,5.082-3.712,27.778,5.176,48.458c11.172,25.922,25.923,27.807,35.61,22.202
		c9.688-5.586,15.436-19.318-1.428-41.939C369.664,417.892,352.573,402.142,343.761,407.224z"/>
	<path class="st0" d="M76.045,128.871c-22.611-16.864-36.333-11.106-41.929-1.418c-5.596,9.687-3.73,24.447,22.192,35.601
		c20.689,8.906,43.376,13.998,48.458,5.196C109.848,159.437,94.089,142.336,76.045,128.871z"/>
	<path class="st0" d="M455.673,348.946c-20.669-8.908-43.357-13.999-48.438-5.197c-5.1,8.812,10.659,25.914,28.721,39.38
		c22.611,16.862,36.333,11.105,41.929,1.418C483.48,374.869,481.595,360.1,455.673,348.946z"/>
	<path class="st0" d="M81.584,256c0-10.164-22.192-17.101-44.556-19.727C9.012,232.97,0.01,244.818,0.01,256
		c0,11.191,9.002,23.029,37.018,19.737C59.392,273.1,81.584,266.163,81.584,256z"/>
	<path class="st0" d="M474.953,236.263c-22.364,2.636-44.556,9.574-44.556,19.737c0,10.163,22.211,17.1,44.556,19.727
		c28.035,3.302,37.037-8.536,37.037-19.727C511.99,244.808,502.988,232.97,474.953,236.263z"/>
	<path class="st0" d="M56.308,348.946c-25.922,11.153-27.787,25.922-22.192,35.601c5.596,9.687,19.318,15.444,41.929-1.418
		c18.044-13.466,33.803-30.567,28.721-39.38C99.684,334.947,76.997,340.039,56.308,348.946z"/>
	<path class="st0" d="M455.673,163.054c25.923-11.154,27.808-25.914,22.211-35.601c-5.596-9.698-19.318-15.446-41.929,1.418
		c-18.062,13.465-33.821,30.566-28.721,39.378C412.316,177.052,435.004,171.96,455.673,163.054z"/>
	<path class="st0" d="M128.861,435.945c-16.862,22.621-11.115,36.353-1.408,41.939c9.687,5.605,24.438,3.72,35.592-22.202
		c8.907-20.679,14.008-43.376,5.196-48.458C159.429,402.142,142.337,417.892,128.861,435.945z"/>
	<path class="st0" d="M384.547,34.116c-9.687-5.605-24.438-3.721-35.61,22.202c-8.907,20.678-13.989,43.375-5.176,48.457
		c8.793,5.082,25.904-10.668,39.359-28.721C399.983,53.434,394.254,39.712,384.547,34.116z"/>
</g>
</svg>